<?xml version="1.0" encoding="utf-8" ?>
<svg xmlns="http://www.w3.org/2000/svg" xmlns:ev="http://www.w3.org/2001/xml-events" xmlns:xlink="http://www.w3.org/1999/xlink" baseProfile="full" height="16px" version="1.1" viewBox="0 0 9 16" width="9px">
  <defs/>
  <g id="x000000_r0_g0_b0_a1.0">
    <path d="M 1,13 1,12 0,12 0,11 2,11 2,12 4,12 5,12 5,11 4,11 4,10 2,10 2,9 1,9 1,8 0,8 0,6 1,6 1,5 2,5 2,4 1,4 1,3 0,3 0,2 1,2 1,1 3,1 6,1 6,2 7,2 7,3 5,3 5,2 2,2 2,3 3,3 3,4 5,4 5,5 6,5 6,6 7,6 7,8 6,8 6,9 5,9 5,10 6,10 6,11 7,11 7,12 6,12 6,13 z M 4,5 3,5 3,6 2,6 2,8 3,8 3,9 4,9 4,8 5,8 5,6 4,6 z" fill="#000000" fill-opacity="1.0" id="x000000_r0_g0_b0_a1.0_shape1"/>
  </g>
</svg>
