<?xml version="1.0" encoding="utf-8" ?>
<svg xmlns="http://www.w3.org/2000/svg" xmlns:ev="http://www.w3.org/2001/xml-events" xmlns:xlink="http://www.w3.org/1999/xlink" baseProfile="full" height="16px" version="1.1" viewBox="0 0 9 16" width="9px">
  <defs/>
  <g id="x000000_r0_g0_b0_a1.0">
    <path d="M 0,12 0,10 1,10 1,9 2,9 2,8 3,8 3,6 2,6 2,5 1,5 1,4 0,4 0,2 2,2 2,4 3,4 3,5 5,5 5,4 6,4 6,2 8,2 8,4 7,4 7,5 6,5 6,6 5,6 5,7 5,8 6,8 6,9 7,9 7,10 8,10 8,12 6,12 6,10 5,10 5,9 3,9 3,10 2,10 2,12 z" fill="#000000" fill-opacity="1.0" id="x000000_r0_g0_b0_a1.0_shape1"/>
  </g>
</svg>
