<?xml version="1.0" encoding="utf-8" ?>
<svg xmlns="http://www.w3.org/2000/svg" xmlns:ev="http://www.w3.org/2001/xml-events" xmlns:xlink="http://www.w3.org/1999/xlink" baseProfile="full" height="16px" version="1.1" viewBox="0 0 9 16" width="9px">
  <defs/>
  <g id="x000000_r0_g0_b0_a1.0">
    <path d="M 0,12 0,10 1,10 1,6 0,6 0,5 1,5 1,2 2,2 2,1 5,1 5,2 6,2 6,4 5,4 5,3 4,3 4,2 3,2 3,5 4,5 4,6 3,6 3,11 5,11 5,10 7,10 7,11 6,11 6,12 4,12 z" fill="#000000" fill-opacity="1.0" id="x000000_r0_g0_b0_a1.0_shape1"/>
  </g>
</svg>
