<?xml version="1.0" encoding="utf-8" ?>
<svg xmlns="http://www.w3.org/2000/svg" xmlns:ev="http://www.w3.org/2001/xml-events" xmlns:xlink="http://www.w3.org/1999/xlink" baseProfile="full" height="16px" version="1.1" viewBox="0 0 9 16" width="9px">
  <defs/>
  <g id="x000000_r0_g0_b0_a1.0">
    <path d="M 3,9 0,9 0,8 3,8 3,7 0,7 0,6 3,6 3,5 2,5 2,4 1,4 1,3 0,3 0,2 2,2 2,3 3,3 3,4 5,4 5,3 6,3 6,2 8,2 8,3 7,3 7,4 6,4 6,5 5,5 5,6 8,6 8,7 5,7 5,8 7,8 8,8 8,9 7,9 5,9 5,12 4,12 3,12 z" fill="#000000" fill-opacity="1.0" id="x000000_r0_g0_b0_a1.0_shape1"/>
  </g>
</svg>
