<?xml version="1.0" encoding="utf-8" ?>
<svg xmlns="http://www.w3.org/2000/svg" xmlns:ev="http://www.w3.org/2001/xml-events" xmlns:xlink="http://www.w3.org/1999/xlink" baseProfile="full" height="16px" version="1.1" viewBox="0 0 9 16" width="9px">
  <defs/>
  <g id="x000000_r0_g0_b0_a1.0">
    <path d="M 0,12 0,11 1,11 1,10 2,10 2,8 2,7 1,7 1,6 0,6 0,5 1,5 2,5 2,6 3,6 3,7 4,7 4,6 5,6 5,5 6,5 7,5 7,6 6,6 6,7 5,7 5,8 5,10 6,10 6,11 7,11 7,12 5,12 5,11 4,11 4,10 3,10 3,11 2,11 2,12 z" fill="#000000" fill-opacity="1.0" id="x000000_r0_g0_b0_a1.0_shape1"/>
  </g>
</svg>
