<?xml version="1.0" encoding="utf-8" ?>
<svg xmlns="http://www.w3.org/2000/svg" xmlns:ev="http://www.w3.org/2001/xml-events" xmlns:xlink="http://www.w3.org/1999/xlink" baseProfile="full" height="16px" version="1.1" viewBox="0 0 9 16" width="9px">
  <defs/>
  <g id="x000000_r0_g0_b0_a1.0">
    <path d="M 3,10 3,9 4,9 4,8 5,8 5,7 4,7 4,6 3,6 3,5 2,5 2,4 1,4 1,3 2,3 3,3 3,4 4,4 4,5 5,5 5,6 6,6 6,7 7,7 7,8 6,8 6,9 5,9 5,10 4,10 4,11 3,11 3,12 2,12 1,12 1,11 2,11 2,10 z" fill="#000000" fill-opacity="1.0" id="x000000_r0_g0_b0_a1.0_shape1"/>
  </g>
</svg>
