<?xml version="1.0" encoding="utf-8" ?>
<svg xmlns="http://www.w3.org/2000/svg" xmlns:ev="http://www.w3.org/2001/xml-events" xmlns:xlink="http://www.w3.org/1999/xlink" baseProfile="full" height="16px" version="1.1" viewBox="0 0 9 16" width="9px">
  <defs/>
  <g id="x000000_r0_g0_b0_a1.0">
    <path d="M 3,9 2,9 2,10 1,10 1,11 0,11 0,10 0,9 1,9 1,8 2,8 2,7 3,7 3,6 4,6 4,5 5,5 5,4 6,4 6,3 7,3 7,4 7,5 6,5 6,6 5,6 5,7 4,7 4,8 3,8 z" fill="#000000" fill-opacity="1.0" id="x000000_r0_g0_b0_a1.0_shape1"/>
    <path d="M 3,10 3,9 6,9 6,10 7,10 7,11 6,11 6,12 5,12 5,13 7,13 7,14 4,14 2,14 2,13 3,13 3,12 4,12 4,11 5,11 5,10 z" fill="#000000" fill-opacity="1.0" id="x000000_r0_g0_b0_a1.0_shape2"/>
    <path d="M 2,1 2,6 0,6 0,1 z" fill="#000000" fill-opacity="1.0" id="x000000_r0_g0_b0_a1.0_shape3"/>
  </g>
</svg>
