<?xml version="1.0" encoding="utf-8" ?>
<svg xmlns="http://www.w3.org/2000/svg" xmlns:ev="http://www.w3.org/2001/xml-events" xmlns:xlink="http://www.w3.org/1999/xlink" baseProfile="full" height="16px" version="1.1" viewBox="0 0 9 16" width="9px">
  <defs/>
  <g id="x000000_r0_g0_b0_a1.0">
    <path d="M 7,8 7,14 5,14 5,12 2,12 2,11 3,11 3,10 4,10 4,11 5,11 5,10 4,10 4,9 5,9 5,8 z" fill="#000000" fill-opacity="1.0" id="x000000_r0_g0_b0_a1.0_shape1"/>
    <path d="M 3,9 2,9 2,10 1,10 1,11 0,11 0,10 0,9 1,9 1,8 2,8 2,7 3,7 3,6 4,6 4,5 5,5 5,4 6,4 6,3 7,3 7,4 7,5 6,5 6,6 5,6 5,7 4,7 4,8 3,8 z" fill="#000000" fill-opacity="1.0" id="x000000_r0_g0_b0_a1.0_shape2"/>
    <path d="M 2,1 2,6 0,6 0,1 z" fill="#000000" fill-opacity="1.0" id="x000000_r0_g0_b0_a1.0_shape3"/>
  </g>
</svg>
