<?xml version="1.0" encoding="utf-8" ?>
<svg xmlns="http://www.w3.org/2000/svg" xmlns:ev="http://www.w3.org/2001/xml-events" xmlns:xlink="http://www.w3.org/1999/xlink" baseProfile="full" height="16px" version="1.1" viewBox="0 0 9 16" width="9px">
  <defs/>
  <g id="x000000_r0_g0_b0_a1.0">
    <path d="M 1,15 1,14 0,14 0,13 2,13 2,14 4,14 4,12 1,12 1,11 0,11 0,10 0,9 0,6 1,6 1,5 4,5 4,6 5,6 5,5 7,5 7,6 6,6 6,8 6,12 6,14 5,14 5,15 z M 2,11 4,11 4,6 2,6 z" fill="#000000" fill-opacity="1.0" id="x000000_r0_g0_b0_a1.0_shape1"/>
  </g>
</svg>
