<?xml version="1.0" encoding="utf-8" ?>
<svg xmlns="http://www.w3.org/2000/svg" xmlns:ev="http://www.w3.org/2001/xml-events" xmlns:xlink="http://www.w3.org/1999/xlink" baseProfile="full" height="16px" version="1.1" viewBox="0 0 9 16" width="9px">
  <defs/>
  <g id="x000000_r0_g0_b0_a1.0">
    <path d="M 6,8 6,9 7,9 7,10 7,12 6,12 6,11 5,11 5,10 4,10 4,9 3,9 3,8 2,8 2,7 1,7 1,6 0,6 0,4 0,3 1,3 1,4 2,4 2,5 3,5 3,6 4,6 4,7 5,7 5,8 z" fill="#000000" fill-opacity="1.0" id="x000000_r0_g0_b0_a1.0_shape1"/>
  </g>
</svg>
