<?xml version="1.0" encoding="utf-8" ?>
<svg xmlns="http://www.w3.org/2000/svg" xmlns:ev="http://www.w3.org/2001/xml-events" xmlns:xlink="http://www.w3.org/1999/xlink" baseProfile="full" height="16px" version="1.1" viewBox="0 0 9 16" width="9px">
  <defs/>
  <g id="x000000_r0_g0_b0_a1.0">
    <path d="M 0,12 0,11 1,11 1,3 0,3 0,2 3,2 3,6 4,6 4,5 5,5 5,2 7,2 7,5 6,5 6,6 5,6 5,8 6,8 6,9 7,9 7,12 5,12 5,10 5,9 4,9 4,8 3,8 3,12 z" fill="#000000" fill-opacity="1.0" id="x000000_r0_g0_b0_a1.0_shape1"/>
  </g>
</svg>
