<?xml version="1.0" encoding="utf-8" ?>
<svg xmlns="http://www.w3.org/2000/svg" xmlns:ev="http://www.w3.org/2001/xml-events" xmlns:xlink="http://www.w3.org/1999/xlink" baseProfile="full" height="16px" version="1.1" viewBox="0 0 9 16" width="9px">
  <defs/>
  <g id="x000000_r0_g0_b0_a1.0">
    <path d="M 3,12 1,12 1,11 0,11 0,9 1,9 1,10 2,10 2,11 5,11 5,7 3,7 1,7 1,6 0,6 0,3 1,3 1,2 2,2 3,2 3,0 5,0 5,2 6,2 6,3 7,3 7,5 6,5 6,4 5,4 5,3 2,3 2,6 6,6 6,7 7,7 7,11 6,11 6,12 5,12 5,14 4,14 3,14 z" fill="#000000" fill-opacity="1.0" id="x000000_r0_g0_b0_a1.0_shape1"/>
  </g>
</svg>
