<?xml version="1.0" encoding="utf-8" ?>
<svg xmlns="http://www.w3.org/2000/svg" xmlns:ev="http://www.w3.org/2001/xml-events" xmlns:xlink="http://www.w3.org/1999/xlink" baseProfile="full" height="16px" version="1.1" viewBox="0 0 9 16" width="9px">
  <defs/>
  <g id="x000000_r0_g0_b0_a1.0">
    <path d="M 6,11 7,11 7,12 5,12 5,11 4,11 4,8 2,8 2,11 3,11 4,11 4,12 3,12 1,12 1,11 0,11 0,8 1,8 1,7 4,7 4,6 1,6 1,5 5,5 5,6 6,6 6,7 z" fill="#000000" fill-opacity="1.0" id="x000000_r0_g0_b0_a1.0_shape1"/>
    <path d="M 1,1 3,1 3,2 4,2 4,3 5,3 5,4 3,4 3,3 2,3 2,2 1,2 z" fill="#000000" fill-opacity="1.0" id="x000000_r0_g0_b0_a1.0_shape2"/>
  </g>
</svg>
