<?xml version="1.0" encoding="utf-8" ?>
<svg xmlns="http://www.w3.org/2000/svg" xmlns:ev="http://www.w3.org/2001/xml-events" xmlns:xlink="http://www.w3.org/1999/xlink" baseProfile="full" height="16px" version="1.1" viewBox="0 0 9 16" width="9px">
  <defs/>
  <g id="x000000_r0_g0_b0_a1.0">
    <path d="M 2,11 4,11 4,12 1,12 1,11 0,11 0,7 1,7 1,6 2,6 2,5 1,5 1,3 2,3 2,2 5,2 5,3 6,3 6,5 5,5 5,6 4,6 4,7 5,7 5,6 7,6 7,7 6,7 6,11 7,11 7,12 5,12 5,11 4,11 4,8 3,8 3,7 2,7 2,8 z M 3,3 3,5 4,5 4,3 z" fill="#000000" fill-opacity="1.0" id="x000000_r0_g0_b0_a1.0_shape1"/>
  </g>
</svg>
