<?xml version="1.0" encoding="utf-8" ?>
<svg xmlns="http://www.w3.org/2000/svg" xmlns:ev="http://www.w3.org/2001/xml-events" xmlns:xlink="http://www.w3.org/1999/xlink" baseProfile="full" height="16px" version="1.1" viewBox="0 0 9 16" width="9px">
  <defs/>
  <g id="x000000_r0_g0_b0_a1.0">
    <path d="M 6,9 7,9 7,10 6,10 6,12 4,12 4,10 3,10 3,12 2,12 1,12 1,10 0,10 0,9 1,9 1,8 1,6 0,6 0,5 1,5 1,4 1,3 3,3 3,5 4,5 4,3 5,3 6,3 6,5 7,5 7,6 6,6 z M 3,9 4,9 4,6 3,6 z" fill="#000000" fill-opacity="1.0" id="x000000_r0_g0_b0_a1.0_shape1"/>
  </g>
</svg>
