<?xml version="1.0" encoding="utf-8" ?>
<svg xmlns="http://www.w3.org/2000/svg" xmlns:ev="http://www.w3.org/2001/xml-events" xmlns:xlink="http://www.w3.org/1999/xlink" baseProfile="full" height="16px" version="1.1" viewBox="0 0 9 16" width="9px">
  <defs/>
  <g id="x000000_r0_g0_b0_a1.0">
    <path d="M 1,6 1,5 6,5 6,6 7,6 7,8 2,8 2,11 5,11 5,10 7,10 7,11 6,11 6,12 3,12 1,12 1,11 0,11 0,6 z M 2,6 2,7 5,7 5,6 z" fill="#000000" fill-opacity="1.0" id="x000000_r0_g0_b0_a1.0_shape1"/>
    <path d="M 1,2 2,2 2,3 1,3 0,3 0,2 z" fill="#000000" fill-opacity="1.0" id="x000000_r0_g0_b0_a1.0_shape2"/>
    <path d="M 7,3 5,3 5,2 7,2 z" fill="#000000" fill-opacity="1.0" id="x000000_r0_g0_b0_a1.0_shape3"/>
  </g>
</svg>
