<?xml version="1.0" encoding="utf-8" ?>
<svg xmlns="http://www.w3.org/2000/svg" xmlns:ev="http://www.w3.org/2001/xml-events" xmlns:xlink="http://www.w3.org/1999/xlink" baseProfile="full" height="16px" version="1.1" viewBox="0 0 9 16" width="9px">
  <defs/>
  <g id="x000000_r0_g0_b0_a1.0">
    <path d="M 3,9 2,9 2,11 5,11 5,10 6,10 6,9 7,9 7,12 0,12 0,9 1,9 1,8 2,8 2,7 3,7 3,6 4,6 4,5 5,5 5,3 2,3 2,4 1,4 1,5 0,5 0,2 7,2 7,5 6,5 6,6 5,6 5,7 4,7 4,8 3,8 z" fill="#000000" fill-opacity="1.0" id="x000000_r0_g0_b0_a1.0_shape1"/>
  </g>
</svg>
