<?xml version="1.0" encoding="utf-8" ?>
<svg xmlns="http://www.w3.org/2000/svg" xmlns:ev="http://www.w3.org/2001/xml-events" xmlns:xlink="http://www.w3.org/1999/xlink" baseProfile="full" height="16px" version="1.1" viewBox="0 0 9 16" width="9px">
  <defs/>
  <g id="x000000_r0_g0_b0_a1.0">
    <path d="M 2,9 2,12 0,12 0,6 1,6 1,5 2,5 2,4 3,4 3,3 4,3 4,4 5,4 5,5 6,5 6,6 7,6 7,11 7,12 5,12 5,9 z M 3,6 2,6 2,7 2,8 5,8 5,6 4,6 4,5 3,5 z" fill="#000000" fill-opacity="1.0" id="x000000_r0_g0_b0_a1.0_shape1"/>
    <path d="M 1,1 2,1 2,2 1,2 0,2 0,1 z" fill="#000000" fill-opacity="1.0" id="x000000_r0_g0_b0_a1.0_shape2"/>
    <path d="M 6,1 7,1 7,2 6,2 5,2 5,1 z" fill="#000000" fill-opacity="1.0" id="x000000_r0_g0_b0_a1.0_shape3"/>
  </g>
</svg>
