<?xml version="1.0" encoding="utf-8" ?>
<svg xmlns="http://www.w3.org/2000/svg" xmlns:ev="http://www.w3.org/2001/xml-events" xmlns:xlink="http://www.w3.org/1999/xlink" baseProfile="full" height="16px" version="1.1" viewBox="0 0 9 16" width="9px">
  <defs/>
  <g id="x000000_r0_g0_b0_a1.0">
    <path d="M 8,8 7,8 7,9 5,9 5,10 6,10 6,11 8,11 8,12 5,12 5,11 4,11 4,12 1,12 1,11 0,11 0,9 1,9 1,8 3,8 3,7 2,7 2,6 1,6 1,5 3,5 3,6 4,6 4,5 7,5 7,6 8,6 z M 3,9 2,9 2,10 2,11 3,11 3,10 z M 6,6 5,6 5,7 5,8 6,8 6,7 z" fill="#000000" fill-opacity="1.0" id="x000000_r0_g0_b0_a1.0_shape1"/>
  </g>
</svg>
