<?xml version="1.0" encoding="utf-8" ?>
<svg xmlns="http://www.w3.org/2000/svg" xmlns:ev="http://www.w3.org/2001/xml-events" xmlns:xlink="http://www.w3.org/1999/xlink" baseProfile="full" height="16px" version="1.1" viewBox="0 0 9 16" width="9px">
  <defs/>
  <g id="x000000_r0_g0_b0_a1.0">
    <path d="M 2,11 4,11 4,12 1,12 1,11 0,11 0,5 2,5 2,6 z" fill="#000000" fill-opacity="1.0" id="x000000_r0_g0_b0_a1.0_shape1"/>
    <path d="M 4,5 6,5 6,11 7,11 7,12 5,12 5,11 4,11 4,10 z" fill="#000000" fill-opacity="1.0" id="x000000_r0_g0_b0_a1.0_shape2"/>
    <path d="M 0,3 1,3 1,2 2,2 2,1 4,1 4,2 5,2 5,3 6,3 6,4 5,4 4,4 4,3 3,3 2,3 2,4 1,4 0,4 z" fill="#000000" fill-opacity="1.0" id="x000000_r0_g0_b0_a1.0_shape3"/>
  </g>
</svg>
