<?xml version="1.0" encoding="utf-8" ?>
<svg xmlns="http://www.w3.org/2000/svg" xmlns:ev="http://www.w3.org/2001/xml-events" xmlns:xlink="http://www.w3.org/1999/xlink" baseProfile="full" height="16px" version="1.1" viewBox="0 0 9 16" width="9px">
  <defs/>
  <g id="x000000_r0_g0_b0_a1.0">
    <path d="M 3,7 1,7 1,6 3,6 3,2 4,2 4,1 7,1 7,2 8,2 8,3 6,3 6,2 5,2 5,5 5,6 7,6 7,7 5,7 5,13 4,13 4,14 1,14 1,13 0,13 0,12 2,12 2,13 3,13 z" fill="#000000" fill-opacity="1.0" id="x000000_r0_g0_b0_a1.0_shape1"/>
  </g>
</svg>
