<?xml version="1.0" encoding="utf-8" ?>
<svg xmlns="http://www.w3.org/2000/svg" xmlns:ev="http://www.w3.org/2001/xml-events" xmlns:xlink="http://www.w3.org/1999/xlink" baseProfile="full" height="16px" version="1.1" viewBox="0 0 9 16" width="9px">
  <defs/>
  <g id="x000000_r0_g0_b0_a1.0">
    <path d="M 3,10 4,10 4,11 5,11 6,11 6,12 5,12 3,12 3,11 2,11 2,10 1,10 1,8 1,4 2,4 2,3 3,3 3,2 5,2 6,2 6,3 5,3 4,3 4,4 3,4 3,6 6,6 6,7 3,7 z" fill="#000000" fill-opacity="1.0" id="x000000_r0_g0_b0_a1.0_shape1"/>
  </g>
</svg>
