<?xml version="1.0" encoding="utf-8" ?>
<svg xmlns="http://www.w3.org/2000/svg" xmlns:ev="http://www.w3.org/2001/xml-events" xmlns:xlink="http://www.w3.org/1999/xlink" baseProfile="full" height="16px" version="1.1" viewBox="0 0 9 16" width="9px">
  <defs/>
  <g id="x000000_r0_g0_b0_a1.0">
    <path d="M 3,12 2,12 2,11 1,11 1,10 0,10 0,9 0,5 1,5 1,4 2,4 2,3 5,3 5,4 6,4 6,5 7,5 7,8 7,10 6,10 6,11 5,11 5,12 z M 2,10 3,10 3,11 4,11 4,10 5,10 5,9 5,8 4,8 3,8 2,8 2,9 z M 4,7 5,7 5,6 5,5 4,5 4,4 3,4 3,5 2,5 2,6 2,7 3,7 z" fill="#000000" fill-opacity="1.0" id="x000000_r0_g0_b0_a1.0_shape1"/>
  </g>
</svg>
