<?xml version="1.0" encoding="utf-8" ?>
<svg xmlns="http://www.w3.org/2000/svg" xmlns:ev="http://www.w3.org/2001/xml-events" xmlns:xlink="http://www.w3.org/1999/xlink" baseProfile="full" height="16px" version="1.1" viewBox="0 0 9 16" width="9px">
  <defs/>
  <g id="x000000_r0_g0_b0_a1.0">
    <path d="M 0,12 0,1 5,1 5,2 6,2 6,4 5,4 5,5 2,5 2,6 2,12 1,12 z M 2,4 4,4 4,2 2,2 z" fill="#000000" fill-opacity="1.0" id="x000000_r0_g0_b0_a1.0_shape1"/>
    <path d="M 4,11 4,8 3,8 3,7 4,7 4,6 5,6 5,5 6,5 6,7 7,7 7,8 6,8 6,11 7,11 7,12 5,12 5,11 z" fill="#000000" fill-opacity="1.0" id="x000000_r0_g0_b0_a1.0_shape2"/>
  </g>
</svg>
