<?xml version="1.0" encoding="utf-8" ?>
<svg xmlns="http://www.w3.org/2000/svg" xmlns:ev="http://www.w3.org/2001/xml-events" xmlns:xlink="http://www.w3.org/1999/xlink" baseProfile="full" height="16px" version="1.1" viewBox="0 0 9 16" width="9px">
  <defs/>
  <g id="x000000_r0_g0_b0_a1.0">
    <path d="M 0,12 0,11 1,11 1,2 0,2 0,1 6,1 6,2 7,2 7,4 6,4 6,5 3,5 3,11 4,11 4,12 z M 5,4 5,2 3,2 3,4 z" fill="#000000" fill-opacity="1.0" id="x000000_r0_g0_b0_a1.0_shape1"/>
    <path d="M 8,7 8,8 7,8 7,11 8,11 8,12 6,12 6,11 5,11 5,8 4,8 4,7 5,7 5,6 6,6 6,5 7,5 7,7 z" fill="#000000" fill-opacity="1.0" id="x000000_r0_g0_b0_a1.0_shape2"/>
  </g>
</svg>
