<?xml version="1.0" encoding="utf-8" ?>
<svg xmlns="http://www.w3.org/2000/svg" xmlns:ev="http://www.w3.org/2001/xml-events" xmlns:xlink="http://www.w3.org/1999/xlink" baseProfile="full" height="16px" version="1.1" viewBox="0 0 9 16" width="9px">
  <defs/>
  <g id="x000000_r0_g0_b0_a1.0">
    <path d="M 1,6 1,5 2,5 4,5 4,6 5,6 5,5 7,5 7,6 6,6 6,7 4,7 3,7 3,6 2,6 2,7 0,7 0,6 z" fill="#000000" fill-opacity="1.0" id="x000000_r0_g0_b0_a1.0_shape1"/>
    <path d="M 3,9 2,9 2,10 0,10 0,9 1,9 1,8 4,8 4,9 5,9 5,8 7,8 7,9 6,9 6,10 4,10 3,10 z" fill="#000000" fill-opacity="1.0" id="x000000_r0_g0_b0_a1.0_shape2"/>
  </g>
</svg>
