<?xml version="1.0" encoding="utf-8" ?>
<svg xmlns="http://www.w3.org/2000/svg" xmlns:ev="http://www.w3.org/2001/xml-events" xmlns:xlink="http://www.w3.org/1999/xlink" baseProfile="full" height="16px" version="1.1" viewBox="0 0 9 16" width="9px">
  <defs/>
  <g id="x000000_r0_g0_b0_a1.0">
    <path d="M 4,8 5,8 5,9 6,9 6,10 5,10 4,10 4,9 3,9 3,8 2,8 2,7 1,7 1,6 2,6 2,5 3,5 3,4 4,4 4,3 5,3 6,3 6,4 5,4 5,5 4,5 4,6 3,6 3,7 4,7 z" fill="#000000" fill-opacity="1.0" id="x000000_r0_g0_b0_a1.0_shape1"/>
    <path d="M 1,11 7,11 7,12 1,12 z" fill="#000000" fill-opacity="1.0" id="x000000_r0_g0_b0_a1.0_shape2"/>
  </g>
</svg>
