<?xml version="1.0" encoding="utf-8" ?>
<svg xmlns="http://www.w3.org/2000/svg" xmlns:ev="http://www.w3.org/2001/xml-events" xmlns:xlink="http://www.w3.org/1999/xlink" baseProfile="full" height="16px" version="1.1" viewBox="0 0 9 16" width="9px">
  <defs/>
  <g id="x000000_r0_g0_b0_a1.0">
    <path d="M 0,0 8,0 8,16 0,16 z M 2,5 2,6 1,6 1,10 2,10 2,11 6,11 6,10 7,10 7,9 7,6 6,6 6,5 z" fill="#000000" fill-opacity="1.0" id="x000000_r0_g0_b0_a1.0_shape1"/>
    <path d="M 3,9 2,9 2,7 3,7 3,6 5,6 5,7 6,7 6,9 5,9 5,10 4,10 3,10 z" fill="#000000" fill-opacity="1.0" id="x000000_r0_g0_b0_a1.0_shape2"/>
  </g>
</svg>
