<?xml version="1.0" encoding="utf-8" ?>
<svg xmlns="http://www.w3.org/2000/svg" xmlns:ev="http://www.w3.org/2001/xml-events" xmlns:xlink="http://www.w3.org/1999/xlink" baseProfile="full" height="16px" version="1.1" viewBox="0 0 9 16" width="9px">
  <defs/>
  <g id="x000000_r0_g0_b0_a1.0">
    <path d="M 6,0 6,1 7,1 7,0 8,0 8,2 8,16 5,16 5,15 4,15 4,16 1,16 1,15 0,15 0,14 1,14 1,13 0,13 0,12 1,12 1,11 0,11 0,10 1,10 1,9 0,9 0,8 1,8 1,7 0,7 0,6 1,6 1,5 0,5 0,4 1,4 1,3 0,3 0,2 1,2 1,1 0,1 0,0 2,0 2,1 3,1 3,0 4,0 z M 3,13 3,12 2,12 2,13 z M 3,11 3,10 2,10 2,11 z M 7,6 6,6 6,7 7,7 z M 5,11 4,11 4,12 5,12 z M 3,4 2,4 2,5 3,5 z M 2,7 3,7 3,6 2,6 z M 2,15 3,15 3,14 2,14 z M 5,4 5,3 4,3 4,4 z M 3,8 2,8 2,9 3,9 z M 5,9 4,9 4,10 5,10 z M 4,7 4,8 5,8 5,7 z M 4,1 4,2 5,2 5,1 z M 6,5 7,5 7,4 6,4 z M 7,2 6,2 6,3 7,3 z M 2,2 2,3 3,3 3,2 z M 5,13 4,13 4,14 5,14 z M 4,5 4,6 5,6 5,5 z M 7,12 6,12 6,13 7,13 z M 7,15 7,14 6,14 6,15 z M 6,8 6,9 7,9 7,8 z M 7,11 7,10 6,10 6,11 z" fill="#000000" fill-opacity="1.0" id="x000000_r0_g0_b0_a1.0_shape1"/>
  </g>
</svg>
