<?xml version="1.0" encoding="utf-8" ?>
<svg xmlns="http://www.w3.org/2000/svg" xmlns:ev="http://www.w3.org/2001/xml-events" xmlns:xlink="http://www.w3.org/1999/xlink" baseProfile="full" height="16px" version="1.1" viewBox="0 0 9 16" width="9px">
  <defs/>
  <g id="x000000_r0_g0_b0_a1.0">
    <path d="M 8,11 7,11 7,12 1,12 1,11 0,11 0,3 1,3 1,2 3,2 7,2 7,3 8,3 z M 5,9 5,8 6,8 6,7 2,7 2,8 3,8 3,9 z M 3,4 2,4 2,5 3,5 z M 5,5 6,5 6,4 5,4 z" fill="#000000" fill-opacity="1.0" id="x000000_r0_g0_b0_a1.0_shape1"/>
  </g>
</svg>
