<?xml version="1.0" encoding="utf-8" ?>
<svg xmlns="http://www.w3.org/2000/svg" xmlns:ev="http://www.w3.org/2001/xml-events" xmlns:xlink="http://www.w3.org/1999/xlink" baseProfile="full" height="16px" version="1.1" viewBox="0 0 9 16" width="9px">
  <defs/>
  <g id="x000000_r0_g0_b0_a1.0">
    <path d="M 3,9 1,9 1,8 0,8 0,6 1,6 1,5 2,5 2,4 3,4 3,3 5,3 5,4 6,4 6,5 7,5 7,6 8,6 8,7 8,8 7,8 7,9 5,9 5,10 5,11 6,11 6,12 4,12 2,12 2,11 3,11 z" fill="#000000" fill-opacity="1.0" id="x000000_r0_g0_b0_a1.0_shape1"/>
  </g>
</svg>
