<?xml version="1.0" encoding="utf-8" ?>
<svg xmlns="http://www.w3.org/2000/svg" xmlns:ev="http://www.w3.org/2001/xml-events" xmlns:xlink="http://www.w3.org/1999/xlink" baseProfile="full" height="16px" version="1.1" viewBox="0 0 9 16" width="9px">
  <defs/>
  <g id="x000000_r0_g0_b0_a1.0">
    <path d="M 0,3 1,3 1,10 1,11 0,11 0,10 z" fill="#000000" fill-opacity="1.0" id="x000000_r0_g0_b0_a1.0_shape1"/>
    <path d="M 8,11 7,11 7,3 8,3 z" fill="#000000" fill-opacity="1.0" id="x000000_r0_g0_b0_a1.0_shape2"/>
    <path d="M 7,2 7,3 1,3 1,2 z" fill="#000000" fill-opacity="1.0" id="x000000_r0_g0_b0_a1.0_shape3"/>
    <path d="M 2,7 6,7 6,8 5,8 5,9 3,9 3,8 2,8 z" fill="#000000" fill-opacity="1.0" id="x000000_r0_g0_b0_a1.0_shape4"/>
    <path d="M 1,11 7,11 7,12 1,12 z" fill="#000000" fill-opacity="1.0" id="x000000_r0_g0_b0_a1.0_shape5"/>
    <path d="M 2,4 3,4 3,5 2,5 z" fill="#000000" fill-opacity="1.0" id="x000000_r0_g0_b0_a1.0_shape6"/>
    <path d="M 6,4 6,5 5,5 5,4 z" fill="#000000" fill-opacity="1.0" id="x000000_r0_g0_b0_a1.0_shape7"/>
  </g>
</svg>
