<?xml version="1.0" encoding="utf-8" ?>
<svg xmlns="http://www.w3.org/2000/svg" xmlns:ev="http://www.w3.org/2001/xml-events" xmlns:xlink="http://www.w3.org/1999/xlink" baseProfile="full" height="16px" version="1.1" viewBox="0 0 9 16" width="9px">
  <defs/>
  <g id="x000000_r0_g0_b0_a1.0">
    <path d="M 5,10 5,12 3,12 3,10 1,10 1,9 3,9 3,8 2,8 2,7 1,7 1,5 1,3 2,3 2,2 5,2 6,2 6,3 7,3 7,7 6,7 6,8 5,8 5,9 7,9 7,10 z M 5,3 3,3 3,6 3,7 5,7 5,6 z" fill="#000000" fill-opacity="1.0" id="x000000_r0_g0_b0_a1.0_shape1"/>
  </g>
</svg>
