<?xml version="1.0" encoding="utf-8" ?>
<svg xmlns="http://www.w3.org/2000/svg" xmlns:ev="http://www.w3.org/2001/xml-events" xmlns:xlink="http://www.w3.org/1999/xlink" baseProfile="full" height="8px" version="1.1" viewBox="0 0 8 8" width="8px">
  <defs/>
  <g id="x000000_r0_g0_b0_a1.0">
    <path d="M 6,0 6,2 5,2 5,3 6,3 6,4 4,4 4,5 6,5 6,6 4,6 4,7 4,8 2,8 2,6 0,6 0,5 2,5 2,4 0,4 0,3 1,3 1,2 0,2 0,0 2,0 2,2 4,2 4,0 z" fill="#000000" fill-opacity="1.0" id="x000000_r0_g0_b0_a1.0_shape1"/>
  </g>
</svg>
