<?xml version="1.0" encoding="utf-8" ?>
<svg xmlns="http://www.w3.org/2000/svg" xmlns:ev="http://www.w3.org/2001/xml-events" xmlns:xlink="http://www.w3.org/1999/xlink" baseProfile="full" height="8px" version="1.1" viewBox="0 0 8 8" width="8px">
  <defs/>
  <g id="x000000_r0_g0_b0_a1.0">
    <path d="M 3,0 3,1 2,1 2,0 z" fill="#000000" fill-opacity="1.0" id="x000000_r0_g0_b0_a1.0_shape1"/>
    <path d="M 6,0 7,0 7,1 6,1 z" fill="#000000" fill-opacity="1.0" id="x000000_r0_g0_b0_a1.0_shape2"/>
    <path d="M 1,1 1,2 0,2 0,1 z" fill="#000000" fill-opacity="1.0" id="x000000_r0_g0_b0_a1.0_shape3"/>
    <path d="M 4,2 4,1 5,1 5,2 z" fill="#000000" fill-opacity="1.0" id="x000000_r0_g0_b0_a1.0_shape4"/>
    <path d="M 3,2 3,3 2,3 2,2 z" fill="#000000" fill-opacity="1.0" id="x000000_r0_g0_b0_a1.0_shape5"/>
    <path d="M 6,2 7,2 7,3 6,3 z" fill="#000000" fill-opacity="1.0" id="x000000_r0_g0_b0_a1.0_shape6"/>
    <path d="M 0,3 1,3 1,4 0,4 z" fill="#000000" fill-opacity="1.0" id="x000000_r0_g0_b0_a1.0_shape7"/>
    <path d="M 4,3 5,3 5,4 4,4 z" fill="#000000" fill-opacity="1.0" id="x000000_r0_g0_b0_a1.0_shape8"/>
    <path d="M 2,4 3,4 3,5 2,5 z" fill="#000000" fill-opacity="1.0" id="x000000_r0_g0_b0_a1.0_shape9"/>
    <path d="M 6,4 7,4 7,5 6,5 z" fill="#000000" fill-opacity="1.0" id="x000000_r0_g0_b0_a1.0_shape10"/>
    <path d="M 1,6 0,6 0,5 1,5 z" fill="#000000" fill-opacity="1.0" id="x000000_r0_g0_b0_a1.0_shape11"/>
    <path d="M 5,5 5,6 4,6 4,5 z" fill="#000000" fill-opacity="1.0" id="x000000_r0_g0_b0_a1.0_shape12"/>
    <path d="M 2,7 2,6 3,6 3,7 z" fill="#000000" fill-opacity="1.0" id="x000000_r0_g0_b0_a1.0_shape13"/>
    <path d="M 6,6 7,6 7,7 6,7 z" fill="#000000" fill-opacity="1.0" id="x000000_r0_g0_b0_a1.0_shape14"/>
    <path d="M 0,7 1,7 1,8 0,8 z" fill="#000000" fill-opacity="1.0" id="x000000_r0_g0_b0_a1.0_shape15"/>
    <path d="M 4,8 4,7 5,7 5,8 z" fill="#000000" fill-opacity="1.0" id="x000000_r0_g0_b0_a1.0_shape16"/>
  </g>
</svg>
