<?xml version="1.0" encoding="utf-8" ?>
<svg xmlns="http://www.w3.org/2000/svg" xmlns:ev="http://www.w3.org/2001/xml-events" xmlns:xlink="http://www.w3.org/1999/xlink" baseProfile="full" height="16px" version="1.1" viewBox="0 0 8 16" width="8px">
  <defs/>
  <g id="x000000_r0_g0_b0_a1.0">
    <path d="M 7,12 7,13 5,13 5,11 4,11 4,10 3,10 3,13 0,13 0,12 1,12 1,10 1,4 0,4 0,3 1,3 3,3 3,6 3,8 4,8 4,7 5,7 5,6 7,6 7,7 6,7 6,8 5,8 5,10 6,10 6,11 7,11 z" fill="#000000" fill-opacity="1.0" id="x000000_r0_g0_b0_a1.0_shape1"/>
  </g>
</svg>
