<?xml version="1.0" encoding="utf-8" ?>
<svg xmlns="http://www.w3.org/2000/svg" xmlns:ev="http://www.w3.org/2001/xml-events" xmlns:xlink="http://www.w3.org/1999/xlink" baseProfile="full" height="16px" version="1.1" viewBox="0 0 8 16" width="8px">
  <defs/>
  <g id="x000000_r0_g0_b0_a1.0">
    <path d="M 4,11 4,10 5,10 5,9 7,9 7,15 5,15 5,13 3,13 2,13 2,12 3,12 3,11 z" fill="#000000" fill-opacity="1.0" id="x000000_r0_g0_b0_a1.0_shape1"/>
    <path d="M 1,11 1,12 0,12 0,11 0,10 1,10 1,9 2,9 2,8 3,8 3,7 4,7 4,6 5,6 5,5 6,5 6,4 7,4 7,5 7,6 6,6 6,7 5,7 5,8 4,8 4,9 3,9 3,10 2,10 2,11 z" fill="#000000" fill-opacity="1.0" id="x000000_r0_g0_b0_a1.0_shape2"/>
    <path d="M 0,7 0,2 2,2 2,7 z" fill="#000000" fill-opacity="1.0" id="x000000_r0_g0_b0_a1.0_shape3"/>
  </g>
</svg>
