<?xml version="1.0" encoding="utf-8" ?>
<svg xmlns="http://www.w3.org/2000/svg" xmlns:ev="http://www.w3.org/2001/xml-events" xmlns:xlink="http://www.w3.org/1999/xlink" baseProfile="full" height="16px" version="1.1" viewBox="0 0 8 16" width="8px">
  <defs/>
  <g id="x000000_r0_g0_b0_a1.0">
    <path d="M 3,9 2,9 2,13 0,13 0,6 1,6 1,5 2,5 2,4 3,4 3,3 4,3 4,4 5,4 5,5 6,5 6,6 7,6 7,11 7,13 5,13 5,10 5,9 z M 3,6 2,6 2,7 2,8 5,8 5,6 4,6 4,5 3,5 z" fill="#000000" fill-opacity="1.0" id="x000000_r0_g0_b0_a1.0_shape1"/>
  </g>
</svg>
