<?xml version="1.0" encoding="utf-8" ?>
<svg xmlns="http://www.w3.org/2000/svg" xmlns:ev="http://www.w3.org/2001/xml-events" xmlns:xlink="http://www.w3.org/1999/xlink" baseProfile="full" height="16px" version="1.1" viewBox="0 0 8 16" width="8px">
  <defs/>
  <g id="x000000_r0_g0_b0_a1.0">
    <path d="M 5,10 5,11 6,11 6,12 7,12 7,13 6,13 6,14 4,14 1,14 1,13 0,13 0,12 2,12 2,13 4,13 5,13 5,12 4,12 4,11 2,11 2,10 1,10 1,9 0,9 0,7 1,7 1,6 2,6 2,5 1,5 1,4 0,4 0,3 1,3 1,2 3,2 6,2 6,3 7,3 7,4 6,4 5,4 5,3 4,3 2,3 2,4 3,4 3,5 5,5 5,6 6,6 6,7 7,7 7,9 6,9 6,10 z M 5,9 5,7 4,7 4,6 3,6 3,7 2,7 2,9 3,9 3,10 4,10 4,9 z" fill="#000000" fill-opacity="1.0" id="x000000_r0_g0_b0_a1.0_shape1"/>
  </g>
</svg>
