<?xml version="1.0" encoding="utf-8" ?>
<svg xmlns="http://www.w3.org/2000/svg" xmlns:ev="http://www.w3.org/2001/xml-events" xmlns:xlink="http://www.w3.org/1999/xlink" baseProfile="full" height="16px" version="1.1" viewBox="0 0 8 16" width="8px">
  <defs/>
  <g id="x000000_r0_g0_b0_a1.0">
    <path d="M 3,9 2,9 2,8 1,8 1,7 0,7 0,6 0,4 1,4 1,5 2,5 2,6 3,6 3,7 4,7 4,8 5,8 5,9 6,9 6,10 7,10 7,12 7,13 6,13 6,12 5,12 5,11 4,11 4,10 3,10 z" fill="#000000" fill-opacity="1.0" id="x000000_r0_g0_b0_a1.0_shape1"/>
  </g>
</svg>
