<?xml version="1.0" encoding="utf-8" ?>
<svg xmlns="http://www.w3.org/2000/svg" xmlns:ev="http://www.w3.org/2001/xml-events" xmlns:xlink="http://www.w3.org/1999/xlink" baseProfile="full" height="16px" version="1.1" viewBox="0 0 8 16" width="8px">
  <defs/>
  <g id="x000000_r0_g0_b0_a1.0">
    <path d="M 5,13 2,13 2,12 1,12 1,11 0,11 0,7 0,5 1,5 1,4 2,4 2,3 5,3 5,4 6,4 6,5 7,5 7,8 7,10 7,11 6,11 6,12 5,12 z M 2,11 3,11 3,12 4,12 4,11 5,11 5,5 4,5 4,4 3,4 3,5 2,5 z" fill="#000000" fill-opacity="1.0" id="x000000_r0_g0_b0_a1.0_shape1"/>
    <path d="M 4,9 3,9 3,8 3,7 4,7 4,8 z" fill="#000000" fill-opacity="1.0" id="x000000_r0_g0_b0_a1.0_shape2"/>
  </g>
</svg>
