<?xml version="1.0" encoding="utf-8" ?>
<svg xmlns="http://www.w3.org/2000/svg" xmlns:ev="http://www.w3.org/2001/xml-events" xmlns:xlink="http://www.w3.org/1999/xlink" baseProfile="full" height="16px" version="1.1" viewBox="0 0 8 16" width="8px">
  <defs/>
  <g id="x000000_r0_g0_b0_a1.0">
    <path d="M 4,11 3,11 3,13 1,13 1,11 0,11 0,10 1,10 1,7 0,7 0,6 1,6 1,4 3,4 3,6 4,6 4,4 5,4 6,4 6,6 7,6 7,7 6,7 6,8 6,10 7,10 7,11 6,11 6,13 5,13 4,13 z M 3,10 4,10 4,8 4,7 3,7 3,8 z" fill="#000000" fill-opacity="1.0" id="x000000_r0_g0_b0_a1.0_shape1"/>
  </g>
</svg>
