<?xml version="1.0" encoding="utf-8" ?>
<svg xmlns="http://www.w3.org/2000/svg" xmlns:ev="http://www.w3.org/2001/xml-events" xmlns:xlink="http://www.w3.org/1999/xlink" baseProfile="full" height="16px" version="1.1" viewBox="0 0 8 16" width="8px">
  <defs/>
  <g id="x000000_r0_g0_b0_a1.0">
    <path d="M 3,10 5,10 5,9 7,9 7,10 6,10 6,12 7,12 7,13 6,13 6,14 5,14 4,14 2,14 2,13 4,13 5,13 5,12 4,12 4,11 2,11 2,10 1,10 1,9 1,8 1,6 2,6 2,5 6,5 6,6 7,6 7,7 5,7 5,6 3,6 3,7 z" fill="#000000" fill-opacity="1.0" id="x000000_r0_g0_b0_a1.0_shape1"/>
  </g>
</svg>
