<?xml version="1.0" encoding="utf-8" ?>
<svg xmlns="http://www.w3.org/2000/svg" xmlns:ev="http://www.w3.org/2001/xml-events" xmlns:xlink="http://www.w3.org/1999/xlink" baseProfile="full" height="16px" version="1.1" viewBox="0 0 8 16" width="8px">
  <defs/>
  <g id="x000000_r0_g0_b0_a1.0">
    <path d="M 0,4 1,4 1,3 2,3 5,3 5,4 6,4 6,7 5,7 5,8 6,8 6,9 7,9 7,12 6,12 6,13 4,13 4,12 5,12 5,9 4,9 4,8 3,8 3,7 4,7 4,4 2,4 2,12 2,13 0,13 z" fill="#000000" fill-opacity="1.0" id="x000000_r0_g0_b0_a1.0_shape1"/>
  </g>
</svg>
