<?xml version="1.0" encoding="utf-8" ?>
<svg xmlns="http://www.w3.org/2000/svg" xmlns:ev="http://www.w3.org/2001/xml-events" xmlns:xlink="http://www.w3.org/1999/xlink" baseProfile="full" height="16px" version="1.1" viewBox="0 0 8 16" width="8px">
  <defs/>
  <g id="x000000_r0_g0_b0_a1.0">
    <path d="M 5,12 5,11 6,11 6,10 7,10 7,12 6,12 6,13 3,13 2,13 2,12 1,12 1,11 0,11 0,10 0,5 1,5 1,4 2,4 2,3 5,3 6,3 6,4 7,4 7,6 6,6 6,5 5,5 5,4 3,4 3,5 2,5 2,6 2,9 2,11 3,11 3,12 z" fill="#000000" fill-opacity="1.0" id="x000000_r0_g0_b0_a1.0_shape1"/>
  </g>
</svg>
