<?xml version="1.0" encoding="utf-8" ?>
<svg xmlns="http://www.w3.org/2000/svg" xmlns:ev="http://www.w3.org/2001/xml-events" xmlns:xlink="http://www.w3.org/1999/xlink" baseProfile="full" height="16px" version="1.1" viewBox="0 0 8 16" width="8px">
  <defs/>
  <g id="x000000_r0_g0_b0_a1.0">
    <path d="M 0,10 1,10 1,9 2,9 2,8 3,8 3,7 4,7 4,6 5,6 5,4 4,4 2,4 2,5 0,5 0,4 1,4 1,3 2,3 6,3 6,4 7,4 7,6 6,6 6,7 5,7 5,8 4,8 4,9 3,9 3,10 2,10 2,12 5,12 5,11 7,11 7,13 0,13 z" fill="#000000" fill-opacity="1.0" id="x000000_r0_g0_b0_a1.0_shape1"/>
  </g>
</svg>
