<?xml version="1.0" encoding="utf-8" ?>
<svg xmlns="http://www.w3.org/2000/svg" xmlns:ev="http://www.w3.org/2001/xml-events" xmlns:xlink="http://www.w3.org/1999/xlink" baseProfile="full" height="16px" version="1.1" viewBox="0 0 8 16" width="8px">
  <defs/>
  <g id="x000000_r0_g0_b0_a1.0">
    <path d="M 1,13 1,12 0,12 0,8 1,8 1,7 0,7 0,4 1,4 1,3 6,3 6,4 7,4 7,7 6,7 6,8 7,8 7,12 6,12 6,13 z M 5,12 5,8 2,8 2,12 z M 4,7 5,7 5,6 5,5 5,4 4,4 3,4 2,4 2,5 2,6 2,7 3,7 z" fill="#000000" fill-opacity="1.0" id="x000000_r0_g0_b0_a1.0_shape1"/>
  </g>
</svg>
