<?xml version="1.0" encoding="utf-8" ?>
<svg xmlns="http://www.w3.org/2000/svg" xmlns:ev="http://www.w3.org/2001/xml-events" xmlns:xlink="http://www.w3.org/1999/xlink" baseProfile="full" height="16px" version="1.1" viewBox="0 0 8 16" width="8px">
  <defs/>
  <g id="x000000_r0_g0_b0_a1.0">
    <path d="M 4,11 3,11 3,10 2,10 2,9 1,9 1,8 2,8 2,7 3,7 3,6 4,6 4,5 5,5 5,4 6,4 7,4 7,5 6,5 6,6 5,6 5,7 4,7 4,8 3,8 3,9 4,9 4,10 5,10 5,11 6,11 6,12 7,12 7,13 5,13 5,12 4,12 z" fill="#000000" fill-opacity="1.0" id="x000000_r0_g0_b0_a1.0_shape1"/>
  </g>
</svg>
