<?xml version="1.0" encoding="utf-8" ?>
<svg xmlns="http://www.w3.org/2000/svg" xmlns:ev="http://www.w3.org/2001/xml-events" xmlns:xlink="http://www.w3.org/1999/xlink" baseProfile="full" height="16px" version="1.1" viewBox="0 0 8 16" width="8px">
  <defs/>
  <g id="x000000_r0_g0_b0_a1.0">
    <path d="M 0,11 1,11 1,7 0,7 0,6 1,6 1,3 2,3 2,2 5,2 5,3 6,3 6,5 5,5 5,4 4,4 4,3 3,3 3,6 4,6 4,7 3,7 3,12 5,12 5,11 7,11 7,12 6,12 6,13 0,13 z" fill="#000000" fill-opacity="1.0" id="x000000_r0_g0_b0_a1.0_shape1"/>
  </g>
</svg>
