<?xml version="1.0" encoding="utf-8" ?>
<svg xmlns="http://www.w3.org/2000/svg" xmlns:ev="http://www.w3.org/2001/xml-events" xmlns:xlink="http://www.w3.org/1999/xlink" baseProfile="full" height="16px" version="1.1" viewBox="0 0 8 16" width="8px">
  <defs/>
  <g id="x000000_r0_g0_b0_a1.0">
    <path d="M 6,8 6,9 3,9 3,12 5,12 5,11 7,11 7,13 0,13 0,12 1,12 1,11 1,6 0,6 0,5 4,5 7,5 7,6 7,7 5,7 5,6 3,6 3,8 z" fill="#000000" fill-opacity="1.0" id="x000000_r0_g0_b0_a1.0_shape1"/>
    <path d="M 3,4 1,4 1,3 2,3 2,2 3,2 3,1 5,1 5,2 4,2 4,3 3,3 z" fill="#000000" fill-opacity="1.0" id="x000000_r0_g0_b0_a1.0_shape2"/>
  </g>
</svg>
