<?xml version="1.0" encoding="utf-8" ?>
<svg xmlns="http://www.w3.org/2000/svg" xmlns:ev="http://www.w3.org/2001/xml-events" xmlns:xlink="http://www.w3.org/1999/xlink" baseProfile="full" height="16px" version="1.1" viewBox="0 0 8 16" width="8px">
  <defs/>
  <g id="x000000_r0_g0_b0_a1.0">
    <path d="M 3,10 4,10 4,11 2,11 2,10 1,10 1,9 0,9 0,8 1,8 1,7 2,7 2,6 4,6 4,7 3,7 3,8 2,8 2,9 3,9 z" fill="#000000" fill-opacity="1.0" id="x000000_r0_g0_b0_a1.0_shape1"/>
    <path d="M 5,6 7,6 7,7 6,7 6,8 5,8 5,9 6,9 6,10 7,10 7,11 6,11 5,11 5,10 4,10 4,9 3,9 3,8 4,8 4,7 5,7 z" fill="#000000" fill-opacity="1.0" id="x000000_r0_g0_b0_a1.0_shape2"/>
  </g>
</svg>
