<?xml version="1.0" encoding="utf-8" ?>
<svg xmlns="http://www.w3.org/2000/svg" xmlns:ev="http://www.w3.org/2001/xml-events" xmlns:xlink="http://www.w3.org/1999/xlink" baseProfile="full" height="16px" version="1.1" viewBox="0 0 8 16" width="8px">
  <defs/>
  <g id="x000000_r0_g0_b0_a1.0">
    <path d="M 7,12 7,13 5,13 5,12 4,12 4,9 3,9 3,8 2,8 2,12 4,12 4,13 1,13 1,12 0,12 0,8 1,8 1,7 2,7 2,6 1,6 1,4 2,4 2,3 5,3 5,4 6,4 6,6 5,6 5,7 7,7 7,8 6,8 6,12 z M 3,6 4,6 4,5 4,4 3,4 3,5 z M 5,8 5,7 4,7 4,8 z" fill="#000000" fill-opacity="1.0" id="x000000_r0_g0_b0_a1.0_shape1"/>
  </g>
</svg>
