<?xml version="1.0" encoding="utf-8" ?>
<svg xmlns="http://www.w3.org/2000/svg" xmlns:ev="http://www.w3.org/2001/xml-events" xmlns:xlink="http://www.w3.org/1999/xlink" baseProfile="full" height="16px" version="1.1" viewBox="0 0 8 16" width="8px">
  <defs/>
  <g id="x000000_r0_g0_b0_a1.0">
    <path d="M 0,12 0,7 1,7 1,6 6,6 6,7 7,7 7,12 6,12 6,13 1,13 1,12 z M 5,12 5,7 2,7 2,12 z" fill="#000000" fill-opacity="1.0" id="x000000_r0_g0_b0_a1.0_shape1"/>
    <path d="M 4,5 4,4 3,4 3,5 1,5 1,4 2,4 2,3 3,3 3,2 4,2 4,3 5,3 5,4 6,4 6,5 z" fill="#000000" fill-opacity="1.0" id="x000000_r0_g0_b0_a1.0_shape2"/>
  </g>
</svg>
