<?xml version="1.0" encoding="utf-8" ?>
<svg xmlns="http://www.w3.org/2000/svg" xmlns:ev="http://www.w3.org/2001/xml-events" xmlns:xlink="http://www.w3.org/1999/xlink" baseProfile="full" height="16px" version="1.1" viewBox="0 0 8 16" width="8px">
  <defs/>
  <g id="x000000_r0_g0_b0_a1.0">
    <path d="M 0,7 1,7 1,6 2,6 2,5 3,5 3,4 4,4 4,5 5,5 5,6 6,6 6,7 7,7 7,10 7,13 5,13 5,10 2,10 2,13 0,13 z M 2,8 2,9 3,9 4,9 5,9 5,8 5,7 4,7 4,6 3,6 3,7 2,7 z" fill="#000000" fill-opacity="1.0" id="x000000_r0_g0_b0_a1.0_shape1"/>
    <path d="M 1,2 2,2 2,3 1,3 0,3 0,2 z" fill="#000000" fill-opacity="1.0" id="x000000_r0_g0_b0_a1.0_shape2"/>
    <path d="M 7,3 5,3 5,2 7,2 z" fill="#000000" fill-opacity="1.0" id="x000000_r0_g0_b0_a1.0_shape3"/>
  </g>
</svg>
