<?xml version="1.0" encoding="utf-8" ?>
<svg xmlns="http://www.w3.org/2000/svg" xmlns:ev="http://www.w3.org/2001/xml-events" xmlns:xlink="http://www.w3.org/1999/xlink" baseProfile="full" height="16px" version="1.1" viewBox="0 0 8 16" width="8px">
  <defs/>
  <g id="x000000_r0_g0_b0_a1.0">
    <path d="M 0,12 0,11 1,11 1,10 1,9 2,9 2,8 2,7 1,7 1,6 1,5 0,5 0,4 0,3 1,3 2,3 2,5 3,5 3,6 4,6 4,5 5,5 5,3 7,3 7,5 6,5 6,7 5,7 5,9 6,9 6,11 7,11 7,13 6,13 5,13 5,11 4,11 4,10 3,10 3,11 2,11 2,12 2,13 0,13 z" fill="#000000" fill-opacity="1.0" id="x000000_r0_g0_b0_a1.0_shape1"/>
  </g>
</svg>
