<?xml version="1.0" encoding="utf-8" ?>
<svg xmlns="http://www.w3.org/2000/svg" xmlns:ev="http://www.w3.org/2001/xml-events" xmlns:xlink="http://www.w3.org/1999/xlink" baseProfile="full" height="16px" version="1.1" viewBox="0 0 8 16" width="8px">
  <defs/>
  <g id="x000000_r0_g0_b0_a1.0">
    <path d="M 0,12 0,10 1,10 1,9 2,9 2,8 1,8 1,7 0,7 0,6 2,6 2,7 4,7 4,6 6,6 6,7 7,7 7,8 7,10 5,10 5,11 5,12 7,12 7,13 4,13 4,12 3,12 3,11 3,10 2,10 2,11 2,12 3,12 3,13 1,13 1,12 z M 5,9 5,7 4,7 4,9 z" fill="#000000" fill-opacity="1.0" id="x000000_r0_g0_b0_a1.0_shape1"/>
  </g>
</svg>
