<?xml version="1.0" encoding="utf-8" ?>
<svg xmlns="http://www.w3.org/2000/svg" xmlns:ev="http://www.w3.org/2001/xml-events" xmlns:xlink="http://www.w3.org/1999/xlink" baseProfile="full" height="16px" version="1.1" viewBox="0 0 8 16" width="8px">
  <defs/>
  <g id="x000000_r0_g0_b0_a1.0">
    <path d="M 2,10 3,10 3,11 4,11 5,11 5,10 6,10 6,9 7,9 7,10 7,11 6,11 6,12 6,13 7,13 7,14 6,14 6,15 5,15 1,15 1,14 4,14 5,14 5,13 4,13 4,12 2,12 2,11 1,11 1,10 0,10 0,5 1,5 1,4 2,4 2,3 6,3 6,4 7,4 7,6 6,6 6,5 5,5 5,4 3,4 3,5 2,5 z" fill="#000000" fill-opacity="1.0" id="x000000_r0_g0_b0_a1.0_shape1"/>
  </g>
</svg>
