<?xml version="1.0" encoding="utf-8" ?>
<svg xmlns="http://www.w3.org/2000/svg" xmlns:ev="http://www.w3.org/2001/xml-events" xmlns:xlink="http://www.w3.org/1999/xlink" baseProfile="full" height="16px" version="1.1" viewBox="0 0 8 16" width="8px">
  <defs/>
  <g id="x000000_r0_g0_b0_a1.0">
    <path d="M 0,9 0,7 1,7 1,6 2,6 2,5 3,5 3,4 4,4 4,3 6,3 6,6 6,8 7,8 7,9 6,9 6,12 7,12 7,13 3,13 3,12 4,12 4,9 z M 4,6 3,6 3,7 2,7 2,8 3,8 4,8 z" fill="#000000" fill-opacity="1.0" id="x000000_r0_g0_b0_a1.0_shape1"/>
  </g>
</svg>
