<?xml version="1.0" encoding="utf-8" ?>
<svg xmlns="http://www.w3.org/2000/svg" xmlns:ev="http://www.w3.org/2001/xml-events" xmlns:xlink="http://www.w3.org/1999/xlink" baseProfile="full" height="16px" version="1.1" viewBox="0 0 8 16" width="8px">
  <defs/>
  <g id="x000000_r0_g0_b0_a1.0">
    <path d="M 3,8 1,8 1,7 3,7 3,3 4,3 4,2 7,2 7,3 8,3 8,4 7,4 6,4 6,3 5,3 5,7 7,7 7,8 5,8 5,14 4,14 4,15 1,15 1,14 0,14 0,13 2,13 2,14 3,14 z" fill="#000000" fill-opacity="1.0" id="x000000_r0_g0_b0_a1.0_shape1"/>
  </g>
</svg>
