<?xml version="1.0" encoding="utf-8" ?>
<svg xmlns="http://www.w3.org/2000/svg" xmlns:ev="http://www.w3.org/2001/xml-events" xmlns:xlink="http://www.w3.org/1999/xlink" baseProfile="full" height="16px" version="1.1" viewBox="0 0 8 16" width="8px">
  <defs/>
  <g id="x000000_r0_g0_b0_a1.0">
    <path d="M 8,7 8,10 7,10 7,11 3,11 3,12 2,12 2,13 0,13 0,12 1,12 1,11 1,10 0,10 0,9 0,7 1,7 1,6 3,6 5,6 5,5 6,5 6,4 7,4 8,4 8,5 7,5 7,7 z M 2,8 2,9 3,9 3,8 3,7 2,7 z M 6,10 6,7 5,7 5,9 4,9 4,10 z" fill="#000000" fill-opacity="1.0" id="x000000_r0_g0_b0_a1.0_shape1"/>
  </g>
</svg>
