<?xml version="1.0" encoding="utf-8" ?>
<svg xmlns="http://www.w3.org/2000/svg" xmlns:ev="http://www.w3.org/2001/xml-events" xmlns:xlink="http://www.w3.org/1999/xlink" baseProfile="full" height="16px" version="1.1" viewBox="0 0 8 16" width="8px">
  <defs/>
  <g id="x000000_r0_g0_b0_a1.0">
    <path d="M 6,8 6,12 7,12 7,13 4,13 4,8 5,8 5,5 4,5 4,4 3,4 3,5 2,5 2,8 3,8 3,11 3,13 0,13 0,12 1,12 1,8 0,8 0,5 1,5 1,4 2,4 2,3 5,3 5,4 6,4 6,5 7,5 7,8 z" fill="#000000" fill-opacity="1.0" id="x000000_r0_g0_b0_a1.0_shape1"/>
  </g>
</svg>
