<?xml version="1.0" encoding="utf-8" ?>
<svg xmlns="http://www.w3.org/2000/svg" xmlns:ev="http://www.w3.org/2001/xml-events" xmlns:xlink="http://www.w3.org/1999/xlink" baseProfile="full" height="16px" version="1.1" viewBox="0 0 8 16" width="8px">
  <defs/>
  <g id="x000000_r0_g0_b0_a1.0">
    <path d="M 7,12 7,13 6,13 3,13 1,13 1,12 2,12 3,12 3,11 2,11 2,10 1,10 1,9 1,7 2,7 2,6 3,6 3,5 1,5 1,4 3,4 4,4 7,4 7,5 5,5 5,6 6,6 6,7 7,7 7,9 7,10 6,10 6,11 5,11 5,12 6,12 z M 3,10 5,10 5,7 3,7 z" fill="#000000" fill-opacity="1.0" id="x000000_r0_g0_b0_a1.0_shape1"/>
  </g>
</svg>
