<?xml version="1.0" encoding="utf-8" ?>
<svg xmlns="http://www.w3.org/2000/svg" xmlns:ev="http://www.w3.org/2001/xml-events" xmlns:xlink="http://www.w3.org/1999/xlink" baseProfile="full" height="16px" version="1.1" viewBox="0 0 8 16" width="8px">
  <defs/>
  <g id="x000000_r0_g0_b0_a1.0">
    <path d="M 1,6 1,5 2,5 2,4 5,4 5,5 6,5 6,6 7,6 7,7 7,11 6,11 6,12 5,12 5,13 3,13 2,13 2,12 1,12 1,11 0,11 0,10 0,6 z M 3,9 2,9 2,10 2,11 3,11 3,12 4,12 4,11 5,11 5,10 5,9 4,9 z M 4,5 3,5 3,6 2,6 2,8 3,8 5,8 5,6 4,6 z" fill="#000000" fill-opacity="1.0" id="x000000_r0_g0_b0_a1.0_shape1"/>
  </g>
</svg>
