<?xml version="1.0" encoding="utf-8" ?>
<svg xmlns="http://www.w3.org/2000/svg" xmlns:ev="http://www.w3.org/2001/xml-events" xmlns:xlink="http://www.w3.org/1999/xlink" baseProfile="full" height="16px" version="1.1" viewBox="0 0 8 16" width="8px">
  <defs/>
  <g id="x000000_r0_g0_b0_a1.0">
    <path d="M 0,10 0,2 5,2 5,3 6,3 6,5 5,5 5,6 2,6 2,12 2,13 0,13 z M 2,3 2,5 4,5 4,3 z" fill="#000000" fill-opacity="1.0" id="x000000_r0_g0_b0_a1.0_shape1"/>
    <path d="M 7,8 7,9 6,9 6,12 7,12 7,13 5,13 5,12 4,12 4,9 3,9 3,8 4,8 4,7 5,7 5,6 6,6 6,8 z" fill="#000000" fill-opacity="1.0" id="x000000_r0_g0_b0_a1.0_shape2"/>
  </g>
</svg>
