<?xml version="1.0" encoding="utf-8" ?>
<svg xmlns="http://www.w3.org/2000/svg" xmlns:ev="http://www.w3.org/2001/xml-events" xmlns:xlink="http://www.w3.org/1999/xlink" baseProfile="full" height="16px" version="1.1" viewBox="0 0 8 16" width="8px">
  <defs/>
  <g id="x000000_r0_g0_b0_a1.0">
    <path d="M 7,12 7,13 6,13 5,13 1,13 1,12 3,12 3,11 2,11 2,10 1,10 1,9 3,9 3,6 1,6 1,5 2,5 2,4 3,4 3,3 5,3 5,4 6,4 6,5 7,5 7,6 5,6 5,8 5,9 7,9 7,10 6,10 6,11 5,11 5,12 6,12 z" fill="#000000" fill-opacity="1.0" id="x000000_r0_g0_b0_a1.0_shape1"/>
  </g>
</svg>
