<?xml version="1.0" encoding="utf-8" ?>
<svg xmlns="http://www.w3.org/2000/svg" xmlns:ev="http://www.w3.org/2001/xml-events" xmlns:xlink="http://www.w3.org/1999/xlink" baseProfile="full" height="16px" version="1.1" viewBox="0 0 8 16" width="8px">
  <defs/>
  <g id="x000000_r0_g0_b0_a1.0">
    <path d="M 5,6 7,6 7,7 6,7 6,8 3,8 3,7 2,7 2,8 1,8 0,8 0,7 1,7 1,6 2,6 3,6 4,6 4,7 5,7 z" fill="#000000" fill-opacity="1.0" id="x000000_r0_g0_b0_a1.0_shape1"/>
    <path d="M 3,11 3,10 2,10 2,11 0,11 0,10 1,10 1,9 3,9 4,9 4,10 5,10 5,9 7,9 7,10 6,10 6,11 5,11 z" fill="#000000" fill-opacity="1.0" id="x000000_r0_g0_b0_a1.0_shape2"/>
  </g>
</svg>
