<?xml version="1.0" encoding="utf-8" ?>
<svg xmlns="http://www.w3.org/2000/svg" xmlns:ev="http://www.w3.org/2001/xml-events" xmlns:xlink="http://www.w3.org/1999/xlink" baseProfile="full" height="16px" version="1.1" viewBox="0 0 8 16" width="8px">
  <defs/>
  <g id="x000000_r0_g0_b0_a1.0">
    <path d="M 6,15 6,16 3,16 3,15 2,15 2,16 0,16 0,15 1,15 1,14 0,14 0,13 1,13 1,12 0,12 0,11 1,11 1,10 0,10 0,9 1,9 1,8 0,8 0,7 1,7 1,6 0,6 0,5 1,5 1,4 0,4 0,3 1,3 1,2 0,2 0,0 1,0 1,1 2,1 2,2 3,2 3,1 4,1 4,0 5,0 5,1 6,1 6,2 7,2 7,1 8,1 8,9 8,16 7,16 7,15 z M 2,10 3,10 3,9 2,9 z M 4,7 5,7 5,6 4,6 z M 6,12 7,12 7,11 6,11 z M 7,8 7,7 6,7 6,8 z M 4,13 5,13 5,12 4,12 z M 6,6 7,6 7,5 6,5 z M 4,11 5,11 5,10 4,10 z M 7,3 6,3 6,4 7,4 z M 5,14 4,14 4,15 5,15 z M 5,3 5,2 4,2 4,3 z M 5,4 4,4 4,5 5,5 z M 7,10 7,9 6,9 6,10 z M 2,13 2,14 3,14 3,13 z M 4,9 5,9 5,8 4,8 z M 6,13 6,14 7,14 7,13 z M 2,6 3,6 3,5 2,5 z M 3,12 3,11 2,11 2,12 z M 3,8 3,7 2,7 2,8 z M 3,3 2,3 2,4 3,4 z" fill="#000000" fill-opacity="1.0" id="x000000_r0_g0_b0_a1.0_shape1"/>
    <path d="M 3,0 3,1 2,1 2,0 z" fill="#000000" fill-opacity="1.0" id="x000000_r0_g0_b0_a1.0_shape2"/>
    <path d="M 6,0 7,0 7,1 6,1 z" fill="#000000" fill-opacity="1.0" id="x000000_r0_g0_b0_a1.0_shape3"/>
  </g>
</svg>
