<?xml version="1.0" encoding="utf-8" ?>
<svg xmlns="http://www.w3.org/2000/svg" xmlns:ev="http://www.w3.org/2001/xml-events" xmlns:xlink="http://www.w3.org/1999/xlink" baseProfile="full" height="16px" version="1.1" viewBox="0 0 8 16" width="8px">
  <defs/>
  <g id="x000000_r0_g0_b0_a1.0">
    <path d="M 8,12 7,12 7,13 1,13 1,12 0,12 0,4 1,4 1,3 2,3 7,3 7,4 8,4 z M 3,10 5,10 5,9 6,9 6,8 5,8 2,8 2,9 3,9 z M 6,5 5,5 5,6 6,6 z M 3,6 3,5 2,5 2,6 z" fill="#000000" fill-opacity="1.0" id="x000000_r0_g0_b0_a1.0_shape1"/>
  </g>
</svg>
