<?xml version="1.0" encoding="utf-8" ?>
<svg xmlns="http://www.w3.org/2000/svg" xmlns:ev="http://www.w3.org/2001/xml-events" xmlns:xlink="http://www.w3.org/1999/xlink" baseProfile="full" height="8px" version="1.1" viewBox="0 0 8 8" width="8px">
  <defs/>
  <g id="x000000_r0_g0_b0_a1.0">
    <path d="M 0,3 1,3 1,2 2,2 2,1 3,1 4,1 4,2 3,2 3,3 2,3 2,4 3,4 3,5 4,5 4,6 2,6 2,5 1,5 1,4 0,4 z" fill="#000000" fill-opacity="1.0" id="x000000_r0_g0_b0_a1.0_shape1"/>
    <path d="M 6,6 6,5 5,5 5,4 4,4 4,3 5,3 5,2 6,2 6,1 8,1 8,2 7,2 7,3 6,3 6,4 7,4 7,5 8,5 8,6 7,6 z" fill="#000000" fill-opacity="1.0" id="x000000_r0_g0_b0_a1.0_shape2"/>
  </g>
</svg>
