<?xml version="1.0" encoding="utf-8" ?>
<svg xmlns="http://www.w3.org/2000/svg" xmlns:ev="http://www.w3.org/2001/xml-events" xmlns:xlink="http://www.w3.org/1999/xlink" baseProfile="full" height="8px" version="1.1" viewBox="0 0 8 8" width="8px">
  <defs/>
  <g id="x000000_r0_g0_b0_a1.0">
    <path d="M 1,6 1,3 2,3 2,2 6,2 6,3 7,3 7,5 3,5 3,6 6,6 6,7 2,7 2,6 z M 5,3 3,3 3,4 5,4 z" fill="#000000" fill-opacity="1.0" id="x000000_r0_g0_b0_a1.0_shape1"/>
    <path d="M 7,0 7,1 8,1 8,2 6,2 6,1 2,1 2,2 0,2 0,1 1,1 1,0 z" fill="#000000" fill-opacity="1.0" id="x000000_r0_g0_b0_a1.0_shape2"/>
  </g>
</svg>
