<?xml version="1.0" encoding="utf-8" ?>
<svg xmlns="http://www.w3.org/2000/svg" xmlns:ev="http://www.w3.org/2001/xml-events" xmlns:xlink="http://www.w3.org/1999/xlink" baseProfile="full" height="8px" version="1.1" viewBox="0 0 8 8" width="8px">
  <defs/>
  <g id="x000000_r0_g0_b0_a1.0">
    <path d="M 1,6 1,5 0,5 0,3 1,3 1,2 2,2 2,1 0,1 0,0 6,0 6,1 4,1 4,2 5,2 5,3 6,3 6,5 5,5 5,6 4,6 4,7 6,7 6,8 0,8 0,7 2,7 2,6 z M 2,3 2,5 4,5 4,3 z" fill="#000000" fill-opacity="1.0" id="x000000_r0_g0_b0_a1.0_shape1"/>
  </g>
</svg>
